/* XPM */
static char *graphic[] = {
/* width height num_colors chars_per_pixel */
"16 16 132 2", 
/* colors */
"   c None",
".  c #E49F01",
"X  c #E5A20A",
"o  c #FEFBF5",
"O  c #ECBB4C",
"+  c #F3D48E",
"@  c None",
"#  c #E29E00",
"$  c None",
"%  c #E49E00",
"&  c #ECBD4F",
"*  c None",
"=  c None",
"-  c #E39E00",
";  c #F1CE7E",
":  c #E39E00",
">  c #E39E00",
",  c #E29D00",
"<  c None",
"1  c None",
"2  c #E39E00",
"3  c #E39E00",
"4  c None",
"5  c None",
"6  c #E29F00",
"7  c #EEC056",
"8  c #F8E4B5",
"9  c #E7A715",
"0  c None",
"q  c #E39E00",
"w  c #E9AF29",
"e  c #E29D00",
"r  c None",
"t  c #E7A716",
"y  c #EDBD4F",
"u  c #EAB233",
"i  c #E49E00",
"p  c #F7E1AE",
"a  c #F9E7C0",
"s  c #FAECCB",
"d  c #E9AF2B",
"f  c #FBEFD4",
"g  c #F0C86D",
"h  c #F7E1AF",
"j  c #E5A106",
"k  c #FFFDFA",
"l  c #EFC565",
"z  c #E5A107",
"x  c #FDF7E9",
"c  c #E29D00",
"v  c #F1CD79",
"b  c #FEFAF2",
"n  c #FFFDFB",
"m  c #E49E00",
"M  c #E49E00",
"N  c #E39F00",
"B  c #EDBF54",
"V  c #FBEFD6",
"C  c None",
"Z  c None",
"A  c #E49E00",
"S  c #FDF7EA",
"D  c #E4A001",
"F  c #E6A613",
"G  c None",
"H  c None",
"J  c #E4A002",
"K  c #ECBC4D",
"L  c #EDBF56",
"P  c #E39D00",
"I  c #E7AB1F",
"U  c #E8AE28",
"Y  c #F5DBA1",
"T  c #FAEED1",
"R  c #E9B131",
"E  c None",
"W  c #ECBC4E",
"Q  c None",
"!  c #FBF1DB",
"~  c #E29E00",
"^  c None",
"/  c None",
"(  c #E39D00",
")  c None",
"_  c #E39F00",
"`  c None",
"'  c None",
"]  c #E39F00",
"[  c #E39F00",
"{  c None",
"}  c None",
"|  c #E29E00",
" . c #EFC461",
".. c #EBB63C",
"X. c #FCF1DB",
"o. c #E39E00",
"O. c #EAB334",
"+. c #E7A818",
"@. c #F9E8C1",
"#. c #E29E00",
"$. c #E29E00",
"%. c #FEF9F0",
"&. c #E29E00",
"*. c #F2CF80",
"=. c #E5A207",
"-. c #E29E00",
";. c #FEFBF2",
":. c #F9E8C2",
">. c #E49F00",
",. c #EDBE52",
"<. c #F4D794",
"1. c None",
"2. c #FBF0D6",
"3. c #FCF3DF",
"4. c None",
"5. c #FEF9F1",
"6. c #F7E2B1",
"7. c #EBB841",
"8. c #FEFBF3",
"9. c #FAEDCE",
"0. c #E8AD25",
"q. c #FCF3E0",
"w. c None",
"e. c #E49F00",
"r. c #E5A209",
"t. c None",
"y. c #EBB842",
"u. c #EDBE54",
"i. c #E39E00",
"p. c None",
"a. c None",
"s. c None",
/* pixels */
"      Z ` C i.c -.P s.1 Z       ",
"  E 1.Q ( A q e.e.q A - { a./   ",
"  5 ~ 2 e.e.e.e.e.e.e.e.M , a.  ",
"' w.>.. . e.e.. . e.e.. . 3 $ Z ",
"= $.. U ,.I r.y.7.X +.W w . - 1 ",
"} _ D B X.v d @.s O.l 2.7 J A p.",
"| ] e.R V 6. .x %.g Y 2.u e.# P ",
"- e.e.9 h ! p 8.o 8 f 6.t e.e.> ",
"- e.e.j ; b 5.T 9.;.b *.z e.e.> ",
"N ] e.D K x n <.+ k S y D e.# i.",
"4 _ e.e.0.:.3.L u.q.a 0.e.e.A C ",
"* #.e.e.r.7.O F t & ..=.e.e.( G ",
"< H m e.e.. . e.e.. . e.e.M t.Z ",
"  4.o.m [ e.e.e.e.e.e.e.2 % 5   ",
"  E 4.@ #._ q e.e.q _ i t.1.E   ",
"      < = ) e &.: 6 r 0 ^       "
};
