/* XPM */
static char *graphic[] = {
/* width height num_colors chars_per_pixel */
"32 32 284 2", 
/* colors */
"   c None",
".  c #E49F01",
"X  c #F6DFAA",
"o  c #E39E00",
"O  c None",
"+  c #F0CB73",
"@  c #FEFBF5",
"#  c #FFFEFE",
"$  c #F2D185",
"%  c #F3D48E",
"&  c None",
"*  c #F9EAC7",
"=  c #E7AA1E",
"-  c #E49E00",
";  c None",
":  c #F5DCA2",
">  c #FDF8ED",
",  c #E49E00",
"<  c #E49E00",
"1  c None",
"2  c #F9EAC8",
"3  c #F3D691",
"4  c None",
"5  c None",
"6  c #E29D00",
"7  c #E49E00",
"8  c #F3D692",
"9  c #E39E00",
"0  c None",
"q  c None",
"w  c #E39E00",
"e  c #E39E00",
"r  c #F0CB76",
"t  c None",
"y  c #E39E00",
"u  c None",
"i  c #E39E00",
"p  c #E49E00",
"a  c #E49E00",
"s  c None",
"d  c None",
"f  c #EFC35E",
"g  c #E29F00",
"h  c #E39E00",
"j  c #E39E00",
"k  c #E39E00",
"l  c #E39E00",
"z  c #E49E00",
"x  c None",
"c  c #E29D00",
"v  c #E39E00",
"b  c #E39E00",
"n  c #E39E00",
"m  c #E39E00",
"M  c #EBB53A",
"N  c None",
"B  c #F1CB73",
"V  c #E5A103",
"C  c #F3D185",
"Z  c #E39E00",
"A  c #E7A715",
"S  c #E29D00",
"D  c #EEC057",
"F  c #E39E00",
"G  c #E39E00",
"H  c None",
"J  c None",
"K  c #E5A104",
"L  c #E39F00",
"P  c #E29D00",
"I  c #EDBD4F",
"U  c None",
"Y  c None",
"T  c None",
"R  c #EAB233",
"E  c None",
"W  c #E5A105",
"Q  c #F7E1AE",
"!  c #E6A40E",
"~  c #F9E7C0",
"^  c #FFFDF9",
"/  c #F2D080",
"(  c #EDBD50",
")  c #E39F00",
"_  c #E19E00",
"`  c #FBEFD4",
"'  c #E9AF2B",
"]  c None",
"[  c #E49E00",
"{  c #E5A106",
"}  c #EBB73F",
"|  c #F2D081",
" . c #EDBD51",
".. c #FFFDFA",
"X. c #E39F00",
"o. c #E6A611",
"O. c #E49E00",
"+. c #F9E9C3",
"@. c #E8AC23",
"#. c #E9AF2C",
"$. c None",
"%. c #F6DEA7",
"&. c None",
"*. c #E5A107",
"=. c None",
"-. c #EBB740",
";. c #ECBA49",
":. c #FEFAF2",
">. c None",
",. c #FFFDFB",
"<. c #E5A309",
"1. c #E6A612",
"2. c #E39F00",
"3. c #F4D694",
"4. c #E7A91B",
"5. c #FAECCD",
"6. c #E39D00",
"7. c #FBF1D8",
"8. c #F6DEA8",
"9. c #FCF4E1",
"0. c #E49E00",
"q. c #E29D00",
"w. c #EBB741",
"e. c #FDF7EA",
"r. c #E39F00",
"t. c #E4A001",
"y. c #F1CD7A",
"u. c #E19E00",
"i. c #E5A30A",
"p. c #E6A613",
"a. c #F8E6BC",
"s. c #FFFFFE",
"d. c #E49F00",
"f. c #F4D897",
"g. c #E49F00",
"h. c #E9B130",
"j. c #FCF4E2",
"k. c #E4A002",
"l. c #F1CD7B",
"z. c None",
"x. c #F8E6BD",
"c. c #E6A614",
"v. c #FEFCF6",
"b. c #FFFFFF",
"n. c #F3D58F",
"m. c #FCF4E3",
"M. c #EFC76A",
"N. c None",
"B. c None",
"V. c #E4A003",
"C. c None",
"Z. c None",
"A. c #FDF9EE",
"S. c None",
"D. c #FEFCF7",
"F. c None",
"G. c None",
"H. c #F2D287",
"J. c #F3D590",
"K. c #FAEED2",
"L. c #E39F00",
"P. c None",
"I. c None",
"U. c #EFC76B",
"Y. c #F6E0AD",
"T. c None",
"R. c #EAB63D",
"E. c #E29E00",
"W. c #FDF9EF",
"Q. c None",
"!. c #FEFCF8",
"~. c #E49F00",
"^. c #E39F00",
"/. c #F9EBCA",
"(. c #E39F00",
"). c None",
"_. c None",
"`. c #FCF6E7",
"'. c None",
"]. c #E39F00",
"[. c #E29E00",
"{. c #E39F00",
"}. c None",
"|. c #E39F00",
" X c #E39F00",
".X c None",
"XX c #F4D58E",
"oX c #E39F00",
"OX c #E9AE27",
"+X c #E39F00",
"@X c #E6A30B",
"#X c #E29E00",
"$X c #E29E00",
"%X c #E29E00",
"&X c None",
"*X c #FCF1DA",
"=X c #E39E00",
"-X c None",
";X c #E39E00",
":X c None",
">X c #E7A817",
",X c None",
"<X c #E39E00",
"1X c #EEC159",
"2X c None",
"3X c #E39E00",
"4X c #E49F00",
"5X c #E49F00",
"6X c #E5A004",
"7X c #FCF3DD",
"8X c None",
"9X c #F8E3B6",
"0X c #ECB946",
"qX c #FEF9EF",
"wX c #FFFCF8",
"eX c #F2CF7F",
"rX c #E6A50F",
"tX c #F9E8C1",
"yX c #F4D591",
"uX c #FAEBCA",
"iX c None",
"pX c #F0C76C",
"aX c None",
"sX c #E9B02C",
"dX c #F7E0AE",
"fX c #F0C96E",
"gX c #FDF6E7",
"hX c #FEF9F0",
"jX c None",
"kX c #E5A207",
"lX c None",
"zX c None",
"xX c #ECBB49",
"cX c #E39E00",
"vX c #FFFEFB",
"bX c #E29E00",
"nX c #E49F00",
"mX c #EEC15B",
"MX c None",
"NX c #F5DA9D",
"BX c #FBF0D6",
"VX c #E49F00",
"CX c #FDF6E8",
"ZX c #E39E00",
"AX c #E5A208",
"SX c #F7E2B1",
"DX c #E6A511",
"FX c #E39E00",
"GX c #E29E00",
"HX c #ECBB4A",
"JX c #FFFEFC",
"KX c #E39E00",
"LX c #F3D48C",
"PX c #E7AA1C",
"IX c None",
"UX c None",
"YX c #E8AD25",
"TX c #E9B02E",
"RX c #E39E00",
"EX c #FCF3E0",
"WX c None",
"QX c None",
"!X c #F0C970",
"~X c #E49F00",
"^X c #F6DFA9",
"/X c #E5A209",
"(X c #E29E00",
")X c #E39E00",
"_X c #EBB842",
"`X c None",
"'X c #FDF8EB",
"]X c None",
"[X c #FEFBF4",
"{X c None",
"}X c None",
"|X c #FFFEFD",
" o c #F3D48D",
".o c #E6A714",
"Xo c #E29E00",
"oo c #E8AD26",
"Oo c #F5DA9F",
"+o c #FBF0D8",
"@o c #E39E00",
"#o c None",
/* pixels */
"                  J 8XQXq , S o o RX< T.:XQ.'.                  ",
"              Y UX>.p w {.Z G +X+XG Z VXe g ] F.#o              ",
"          O &.}.$Xk oX~X~X~X~X~X~X~X~X~X~XoXl %XT s B.          ",
"        _.& d.GXoX~X~X~X~X~X~X~X~X~X~X~X~X~X~XoXO.<X-X_.        ",
"      _.=.cX{.~X~X~X~X~X~X~X~X~X~X~X~X~X~X~X~X~X~Xb c {X]X      ",
"      N ) |.~X~X~X~X~X~X~X~X~X~X~X~X~X~X~X~X~X~X~X~X0.[.F.O     ",
"    &.;X{.~X~X~X~X~X~X~X~X~X~X~X~X~X~X~X~X~X~X~X~X~X~Xb <Xs     ",
"  J 1 q.~X~X~X~X~X~X~X~X~X~X~X~X~X~X~X~X~X~X~X~X~X~X~X~Xi iXY   ",
"  N #XoX~X~X. AXi./Xk.~X~X~XW i./XV.~X~X~X. kXi.AXt.~X~XoX%XaX  ",
"J d j ~X~X~XDX+ f. o_XK ~X6XI 3.n.;.{ ~X. #.| f.r p.~X~X~Xl }XY ",
"`XFXoX~X~X~X1.X JXvX9XPX~Xp.^XJXvX+.oo~X@X% v.JXQ A ~X~X~XoXa I.",
"Z.bX~X~X~X~X{ y.wXb.m.w.. TX` b.b.'X .t.@.* b.^ / *.~X~X~X~X[ :X",
"H Xo~X~X~X~X. HXCXb.@ fX{ 1XA.b.b.^ | kXxX`.b.e.I t.~X~X~X~X{.x ",
"-  X~X~X~X~X~XYX/.b.|XOo>XLX,.b.b.s.SX4.l.!.b.5.OX~X~X~X~X~XZ E.",
"6.oX~X~X~X~X~X! NX|Xb./.} x.s.b.b.b.7.0XdX# |X: rX~X~X~X~X~XoXa ",
"z G ~X~X~X~X~XV U.[Xb.gXC 9.b.D.@ b.qXLX+ob.@ !XK ~X~X~X~X~X+Xo ",
"z G ~X~X~X~X~X~XR.EXb.^ *X!.s.uXtX# vX7X@ b.j.-.. ~X~X~X~X~X+Xo ",
"ZXoX~X~X~X~X~X~X4.a.s.b.# b...XXeXD.b.s.b.b.~ = ~X~X~X~X~X~XoXa ",
"g. X~X~X~X~X~X~X<. o,.b.b.b.> D ;.`.b.b.b.,.yXi.~X~X~X~X~X~XZ L ",
"G.].~X~X~X~X~X~Xk.mXW.b.b.b.K.sX@.2 b.b.b.hXf k.~X~X~X~X~X~X{.0 ",
"4 L.~X~X~X~X~X~X~Xh.BXb.b.# %.o.! NX|Xb.b.7.R ~X~X~X~X~X~X~X5XQX",
"IX~.oX~X~X~X~X~X~Xc.Y.vXJXA.pXW V M.:.JX..8..o~X~X~X~X~X~XoXp I.",
"J S.(X~X~X~X~X~X~XW ( J.3 B PX~X~X' $ 8 H.M V.~X~X~X~X~X~Xk 2XY ",
"  &X)XF ~X~X~X~X~X~XK /X/XW . ~X~Xk.AX/XkXk.~X~X~X~X~X~XoX$XUX  ",
"  J z.^.~X~X~X~X~X~X~X~X~X~X~X~X~X~X~X~X~X~X~X~X~X~X~X~XGXU '.  ",
"    .X=Xv ~X~X~X~X~X~X~X~X~X~X~X~X~X~X~X~X~X~X~X~X~X~X{.6 zX    ",
"      C.7 n ~X~X~X~X~X~X~X~X~X~X~X~X~X~X~X~X~X~X~X~Xm cXu       ",
"      _.lX7 v ~X~X~X~X~X~X~X~X~X~X~X~X~X~X~X~X~X~X{.cX,X_.      ",
"        _.&X=Xy oX~X~X~X~X~X~X~X~X~X~X~X~X~X~XoX(.d.E _.        ",
"            P.MX2.h oX~X~X~X~X~X~X~X~X~X~XoXnXP t N.O           ",
"              J ).5 X.9 v  XoXG G oX Xv 4XKXjXE '.              ",
"                  J `X$.WX_ u.@or.FX3X2X; `XJ                   "
};
