/* XPM */
static char *graphic[] = {
/* width height num_colors chars_per_pixel */
"64 64 489 2", 
/* colors */
"   c None",
".  c None",
"X  c None",
"o  c #E49F01",
"O  c #F6DFAA",
"+  c #E39E00",
"@  c #F7E2B3",
"#  c #FCF5E3",
"$  c None",
"%  c #FDF8EC",
"&  c #FEFBF5",
"*  c #FFFEFE",
"=  c #F2D185",
"-  c #E39E00",
";  c None",
":  c #F4D797",
">  c #E7AA1E",
",  c #F9EAC7",
"<  c None",
"1  c #E39E00",
"2  c #FAEDD0",
"3  c #E19D00",
"4  c #E39E00",
"5  c None",
"6  c None",
"7  c #F5DCA2",
"8  c #E39E00",
"9  c #E49F02",
"0  c #F6DFAB",
"q  c None",
"w  c #FCF5E4",
"e  c None",
"r  c #FDF8ED",
"t  c None",
"y  c None",
"u  c #E49E00",
"i  c #E49E00",
"p  c #E39E00",
"a  c None",
"s  c #FEFDF8",
"d  c #E39E00",
"f  c #F9EAC8",
"g  c None",
"h  c None",
"j  c #E39E00",
"k  c None",
"l  c None",
"z  c #F5DCA3",
"x  c None",
"c  c None",
"v  c #E9B233",
"b  c None",
"n  c #FCF5E5",
"m  c None",
"M  c #FDF8EE",
"N  c None",
"B  c #E29D00",
"V  c #E39E00",
"C  c #E39E00",
"Z  c #E39E00",
"A  c #ECBD50",
"S  c None",
"D  c #E39E00",
"F  c #EEC362",
"G  c None",
"H  c #F4D99B",
"J  c None",
"K  c #FAEFD4",
"L  c None",
"P  c #E49E00",
"I  c #E39E00",
"U  c None",
"Y  c #E39E00",
"T  c #FCF7E8",
"R  c #E39E00",
"E  c None",
"W  c #E4A000",
"Q  c #FAEFD5",
"!  c None",
"~  c #E39E00",
"^  c None",
"/  c None",
"(  c None",
")  c #E39E00",
"_  c #E49E00",
"`  c #E39E00",
"'  c #E39E00",
"]  c #E39E00",
"[  c #E39E00",
"{  c #E49E00",
"}  c #E39E00",
"|  c None",
" . c #E39E00",
".. c None",
"X. c #E39E00",
"o. c None",
"O. c None",
"+. c #E39E00",
"@. c #E29F00",
"#. c None",
"$. c #E39E00",
"%. c #E39E00",
"&. c #E39E00",
"*. c None",
"=. c #E39F00",
"-. c #E39E00",
";. c #ECB843",
":. c None",
">. c #E39E00",
",. c #E49E00",
"<. c #E49E00",
"1. c #E6A40C",
"2. c None",
"3. c #E5A000",
"4. c #E39E00",
"5. c #E7A715",
"6. c None",
"7. c #E39E00",
"8. c #E29D00",
"9. c #E39E00",
"0. c #EEC057",
"q. c #E39E00",
"w. c None",
"e. c #F6DCA2",
"r. c None",
"t. c #FEF8ED",
"y. c None",
"u. c None",
"i. c #E5A104",
"p. c None",
"a. c None",
"s. c #E6A40D",
"d. c None",
"f. c None",
"g. c #EDBD4F",
"h. c #E29D00",
"j. c None",
"k. c None",
"l. c #E9AF2A",
"z. c #E49E00",
"x. c #EAB233",
"c. c #E39F00",
"v. c None",
"b. c #E39D00",
"n. c #F1CB75",
"m. c #E5A105",
"M. c #E49E00",
"N. c #F8E4B7",
"B. c None",
"V. c #FFFDF9",
"C. c #F3D389",
"Z. c None",
"A. c #E7A919",
"S. c #E29D00",
"D. c #F4D692",
"F. c None",
"G. c #E8AC22",
"H. c #F5D99B",
"J. c None",
"K. c #E39F00",
"L. c None",
"P. c #E29D00",
"I. c None",
"U. c #FCF2DD",
"Y. c #E39F00",
"T. c #FDF5E6",
"R. c #F0C86D",
"E. c #E49E00",
"W. c None",
"Q. c #E5A106",
"!. c #FDF7E8",
"~. c #EBB73F",
"^. c #E39F00",
"/. c #FEFAF1",
"(. c #ECBA48",
"). c #FFFDFA",
"_. c #F2D081",
"`. c #EDBD51",
"'. c None",
"]. c #E6A611",
"[. c #F4D693",
"{. c #F9E9C3",
"}. c #E7A91A",
"|. c #E39F00",
" X c #FAECCC",
".X c #E8AC23",
"XX c #E49E00",
"oX c #E9AF2C",
"OX c #EEC25C",
"+X c None",
"@X c #E49E00",
"#X c #EFC565",
"$X c None",
"%X c #FCF2DE",
"&X c None",
"*X c None",
"=X c #F0C86E",
"-X c None",
";X c #F6DEA7",
":X c None",
">X c #EAB437",
",X c #E39F00",
"<X c #E5A107",
"1X c #F7E1B0",
"2X c None",
"3X c #EBB740",
"4X c #FDF7E9",
"5X c None",
"6X c #E49E00",
"7X c #FFFDFB",
"8X c None",
"9X c #E49E00",
"0X c #E6A612",
"qX c #F3D38B",
"wX c #E39F00",
"eX c #E49E00",
"rX c #E7A91B",
"tX c #FAECCD",
"yX c #E49E00",
"uX c None",
"iX c #E49E00",
"pX c #EFC566",
"aX c None",
"sX c #F5DB9F",
"dX c #FBF1D8",
"fX c #E9B12F",
"gX c None",
"hX c #EAB438",
"jX c #FCF4E1",
"kX c None",
"lX c #E49E00",
"zX c #E39F00",
"xX c #EBB741",
"cX c #E49E00",
"vX c #E4A001",
"bX c #FEFAF3",
"nX c #ECBA4A",
"mX c #F1CD7A",
"MX c None",
"NX c #FFFDFC",
"BX c #E5A30A",
"VX c #E6A613",
"CX c #E49E00",
"ZX c #E7A91C",
"AX c #ECBC4C",
"SX c #FEFCF5",
"DX c #FFFFFE",
"FX c #EDBF55",
"GX c #E49E00",
"HX c None",
"JX c #EEC25E",
"KX c #E49F00",
"LX c #F4D897",
"PX c #EFC567",
"IX c #E39F00",
"UX c #E8AE27",
"YX c #E9B130",
"TX c #FBF1D9",
"RX c #F6DEA9",
"EX c #E49F00",
"WX c #EAB439",
"QX c #FDF7EB",
"!X c #E39F00",
"~X c None",
"^X c None",
"/X c #E4A002",
"(X c None",
")X c #E5A30B",
"_X c None",
"`X c #F2D084",
"'X c #EBB944",
"]X c #F8E6BD",
"[X c #FDF9ED",
"{X c #E6A614",
"}X c #FEFCF6",
"|X c #E39F00",
" o c #FFFFFF",
".o c #EDBF56",
"Xo c #E49F00",
"oo c None",
"Oo c None",
"+o c #E7AB1F",
"@o c None",
"#o c #F5DBA1",
"$o c #E39F00",
"%o c #E8AE28",
"&o c #E39F00",
"*o c #FCF4E3",
"=o c None",
"-o c #E4A003",
";o c #F6E0AC",
":o c None",
">o c #E5A30C",
",o c #F8E6BE",
"<o c None",
"1o c #FEFCF7",
"2o c #E39F00",
"3o c None",
"4o c #E6A817",
"5o c #F9EBC9",
"6o c #F4D899",
"7o c None",
"8o c #FAEED2",
"9o c None",
"0o c None",
"qo c None",
"wo c #FCF6E6",
"eo c None",
"ro c #E49F00",
"to c #FDF9EF",
"yo c #FEFCF8",
"uo c None",
"io c #F8E8C1",
"po c None",
"ao c None",
"so c #E39F00",
"do c None",
"fo c None",
"go c None",
"ho c None",
"jo c #E29E00",
"ko c #F7E3B7",
"lo c #EAB63E",
"zo c #FCF6E7",
"xo c #EBB947",
"co c #E39F00",
"vo c None",
"bo c #E39F00",
"no c None",
"mo c #E49F00",
"Mo c #E49F00",
"No c #E39F00",
"Bo c #E9B336",
"Vo c #E49F00",
"Co c #E39F00",
"Zo c None",
"Ao c None",
"So c #E39F00",
"Do c #E59F00",
"Fo c None",
"Go c None",
"Ho c #E29E00",
"Jo c None",
"Ko c #E39F00",
"Lo c None",
"Po c None",
"Io c #E49F00",
"Uo c #E49F00",
"Yo c #E39F00",
"To c #E39F00",
"Ro c #E39F00",
"Eo c None",
"Wo c None",
"Qo c #F3D084",
"!o c None",
"~o c #F9E6BD",
"^o c #E39D00",
"/o c None",
"(o c #E29E00",
")o c None",
"_o c None",
"`o c #E39E00",
"'o c #E49F00",
"]o c #E39E00",
"[o c None",
"{o c #EBB63C",
"}o c None",
"|o c None",
" O c #F3D287",
".O c #E49F00",
"XO c None",
"oO c None",
"OO c #E8AB20",
"+O c None",
"@O c #E9AE29",
"#O c #E59F00",
"$O c #EFC462",
"%O c #E49F00",
"&O c #F1CA74",
"*O c #E5A004",
"=O c None",
"-O c #FEF9EF",
";O c #E6A50F",
":O c #E49F00",
">O c None",
",O c #E39E00",
"<O c #E7A818",
"1O c #F9E8C1",
"2O c #FAEBCA",
"3O c #EDBE51",
"4O c None",
"5O c #EEC15A",
"6O c None",
"7O c #EFC463",
"8O c #E39E00",
"9O c None",
"0O c #F1CC77",
"qO c #ECB947",
"wO c #FEF9F0",
"eO c #E5A207",
"rO c #F2CF80",
"tO c None",
"yO c None",
"uO c #E39E00",
"iO c #F8E5B9",
"pO c #E6A510",
"aO c #F9E8C2",
"sO c #E7A819",
"dO c #EDBE52",
"fO c #FAEBCB",
"gO c #E49F00",
"hO c #E39E00",
"jO c None",
"kO c #E49F00",
"lO c #F5DA9D",
"zO c #E8AD24",
"xO c #E9B02D",
"cO c #F6DDA6",
"vO c #FCF3DF",
"bO c None",
"nO c None",
"mO c None",
"MO c #F0C96F",
"NO c #FEF9F1",
"BO c #F1CC78",
"VO c #E39E00",
"CO c #E5A208",
"ZO c #F2CF81",
"AO c None",
"SO c #EBB841",
"DO c #E6A511",
"FO c #FDF8EA",
"GO c #F9E8C3",
"HO c #FEFBF3",
"JO c #E29E00",
"KO c None",
"LO c #FFFEFC",
"PO c None",
"IO c #E49F00",
"UO c #E49F00",
"YO c None",
"TO c #E49F00",
"RO c #E8AD25",
"EO c #FAEDCE",
"WO c None",
"QO c #E9B02E",
"!O c #EFC667",
"~O c #EAB337",
"^O c None",
"/O c #E39E00",
"(O c None",
")O c None",
"_O c None",
"`O c #F0C970",
"'O c #E39E00",
"]O c #E49F00",
"[O c #F6DFA9",
"{O c None",
"}O c #E39E00",
"|O c #E5A209",
" + c #F7E2B2",
".+ c #E29E00",
"X+ c None",
"o+ c #EBB842",
"O+ c None",
"++ c #F8E5BB",
"@+ c #FDF8EB",
"#+ c None",
"$+ c #ECBB4B",
"%+ c #FEFBF4",
"&+ c None",
"*+ c #FFFEFD",
"=+ c #E6A714",
"-+ c #F3D48D",
";+ c #E7AA1D",
":+ c #F4D796",
">+ c None",
",+ c #E39E00",
"<+ c #FAEDCF",
"1+ c #E8AD26",
"2+ c #EEC35F",
"3+ c #FBF0D8",
"4+ c None",
"5+ c #E39E00",
"6+ c None",
"7+ c #EFC668",
"8+ c None",
"9+ c None",
"0+ c #F5DCA1",
/* pixels */
"                                              L.! nOa.po9OFo>+]o]omOJo-X. #.8+gXL.                                              ",
"                                        )oyOAo/ i 5+2oXX^olX>.KoKo>.lXX.@XC zX,O+O[o3ow.                                        ",
"                                    o.PoN P 2okOTO]O]O]O]O]O]O]O]O]O]O]O]O]O]O7.iXZ ^.+O6 uo                                    ",
"                                r.vo{OUo9X9.]O]O]O]O]O]O]O]O]O]O]O]O]O]O]O]O]O]O]O]OYo .8 /oZo4O                                ",
"                            w.v.E !X%.To]O]O]O]O]O]O]O]O]O]O]O]O]O]O]O]O]O]O]O]O]O]O]O]O]OSop (Ob w.                            ",
"                          c <o}OboTo]O]O]O]O]O]O]O]O]O]O]O]O]O]O]O]O]O]O]O]O]O]O]O]O]O]O]O]OToNo,+~X*.                          ",
"                      doh !oI 7.]O]O]O]O]O]O]O]O]O]O]O]O]O]O]O]O]O]O]O]O]O]O]O]O]O]O]O]O]O]O]O]OYoY `ov.do                      ",
"                    )oO.#O .]O]O]O]O]O]O]O]O]O]O]O]O]O]O]O]O]O]O]O]O]O]O]O]O]O]O]O]O]O]O]O]O]O]O]O]ONoVOk w.                    ",
"                  noXOmo-.]O]O]O]O]O]O]O]O]O]O]O]O]O]O]O]O]O]O]O]O]O]O]O]O]O]O]O]O]O]O]O]O]O]O]O]O]O]O>.+ qoGo                  ",
"                noI.- UO]O]O]O]O]O]O]O]O]O]O]O]O]O]O]O]O]O]O]O]O]O]O]O]O]O]O]O]O]O]O]O]O]O]O]O]O]O]O]O]O7.!Xl 9+                ",
"              )o)O<.TO]O]O]O]O]O]O]O]O]O]O]O]O]O]O]O]O]O]O]O]O]O]O]O]O]O]O]O]O]O]O]O]O]O]O]O]O]O]O]O]O]O]OGX!X=Ow.              ",
"            do^X{ 4.]O]O]O]O]O]O]O]O]O]O]O]O]O]O]O]O]O]O]O]O]O]O]O]O]O]O]O]O]O]O]O]O]O]O]O]O]O]O]O]O]O]O]O]O7.+ k #+            ",
"            d.uOcX]O]O]O]O]O]O]O]O]O]O]O]O]O]O]O]O]O]O]O]O]O]O]O]O]O]O]O]O]O]O]O]O]O]O]O]O]O]O]O]O]O]O]O]O]O]O>.^.v.            ",
"          X X+} ]O]O]O]O]O]O]O]O]O]O]O]O]O]O]O]O]O]O]O]O]O]O]O]O]O]O]O]O]O]O]O]O]O]O]O]O]O]O]O]O]O]O]O]O]O]O]O]O+.=.*.          ",
"        L.KOD ]O]O]O]O]O]O]O]O]O]O]O]O]O]O]O]O]O]O]O]O]O]O]O]O]O]O]O]O]O]O]O]O]O]O]O]O]O]O]O]O]O]O]O]O]O]O]O]O]O]OE.(Xw.        ",
"        Oo8.7.]O]O]O]O]O]O]O]O]O]O]O]O]O]O]O]O]O]O]O]O]O]O]O]O]O]O]O]O]O]O]O]O]O]O]O]O]O]O]O]O]O]O]O]O]O]O]O]O]O]OYoMoHX        ",
"      ; W.9X]O]O]O]O]O]O]O]O]O]O]O]O]O]O]O]O]O]O]O]O]O]O]O]O]O]O]O]O]O]O]O]O]O]O]O]O]O]O]O]O]O]O]O]O]O]O]O]O]O]O]O]O+._OZ.      ",
"      oOIXq.]O]O]O]O]O]O]O]O]Oo o o o ]O]O]O]O]O]O]O]O]O]O]Oo o o ]O]O]O]O]O]O]O]O]O]O]O]O]Oo o o ]O]O]O]O]O]O]O]O]O]O|X#.      ",
"    *XfoNo]O]O]O]O]O]O]O]OQ.BoA A A A SO4ovX]O]O]O]O]O]O|O{oA A A 'XZX-o]O]O]O]O]O]O]OCOxOAXA A A WXeO]O]O]O]O]O]O]O]OSou.o.    ",
"    v.+ To]O]O]O]O]O]O]O]O=+[Or r r r *olOzO]O]O]O]O]O]OYX2Or r r T.;ox.9 ]O]O]O]O]OCOJXtXQXr r r @ A.]O]O]O]O]O]O]O]ORoS.2X    ",
"  L.f.` ]O]O]O]O]O]O]O]O]O>oLXLO o o o o& rO|O]O]O]O]O/X2+/. o o o o).sXVX]O]O]O]O]Ox.2 DX o o o*+7 ;O]O]O]O]O]O]O]O]O]OeXB.w.  ",
"  *.jo7.]O]O]O]O]O]O]O]O]O/X#XbX o o o o oGOOO]O]O]O]O)X[.LO o o o o oU.WX]O]O]O]Oi.=X&  o o o o& `Oi.]O]O]O]O]O]O]O]O]OYoro(   ",
"  _X&o]O]O]O]O]O]O]O]O]O]O]O>XU. o o o o ow o+o ]O]O]O+oaO o o o o o obXpX/X]O]O]O;Oz *  o o o o*o3X]O]O]O]O]O]O]O]O]O]O]OC _o  ",
"dof.6X]O]O]O]O]O]O]O]O]O]O]O<ON.DX o o o o}X`Oi.]O]Oo ;.w  o o o o o oLO: )X]O]O]O@O<+ o o o o oio> ]O]O]O]O]O]O]O]O]O]O]OX.B.go",
"o.B Ko]O]O]O]O]O]O]O]O]O]O]OCO O). o o o o*+#o;O]O]Om.&O}X o o o o o o o{.+o]O]OvXdO%  o o o oNXD.BX]O]O]O]O]O]O]O]O]O]O]O7.XogX",
"O+,Xq.]O]O]O]O]O]O]O]O]O]O]OvXFXr  o o o o ofORO]O]ODO;X*  o o o o o o o# xX]O]OeO= ). o o o oNO2+/X]O]O]O]O]O]O]O]O]O]O]ORo5+nO",
"$X$o]O]O]O]O]O]O]O]O]O]O]O]O]OoX8o o o o o o!.nXo ]OoX8o o o o o o o o oSXMOi.]O<OkoDX o o o oTXv ]O]O]O]O]O]O]O]O]O]O]O]O]O.Oa ",
"EoR ]O]O]O]O]O]O]O]O]O]O]O]O]O].RX*  o o o oyoBOm.vX.or  o o o o o o o o*+0+;O]OhXU. o o o oDX +5.]O]O]O]O]O]O]O]O]O]O]O]O]O~ po",
"G ' ]O]O]O]O]O]O]O]O]O]O]O]O]Om.0O1o o o o o* RX].COC.). o o o o o o o o o X1+-oPXbX o o o oV._.<X]O]O]O]O]O]O]O]O]O]O]O]O]Obox ",
"F.$.]O]O]O]O]O]O]O]O]O]O]O]O]Oo qOwo o o o o o8ol.}.++DX o o o o o o o o o4X$+s.H *+ o o o o@+g.o ]O]O]O]O]O]O]O]O]O]O]O]O]OlX:.",
"holX]O]O]O]O]O]O]O]O]O]O]O]O]O]OG.,  o o o o o% 3O{ovO o o o o oDX o o o oyomX%o5o o o o o oEO%o]O]O]O]O]O]O]O]O]O]O]O]O]O]O>.>+",
"(OcX]O]O]O]O]O]O]O]O]O]O]O]O]O]O1.6o*+ o o o oV.Qo`O%+ o o o oM n  o o o o* 0 OXT  o o o o* z ;O]O]O]O]O]O]O]O]O]O]O]O]O]O]OKo]o",
"(OcX]O]O]O]O]O]O]O]O]O]O]O]O]O]O-o!OHO o o o oDX~o +*+ o o oDX]Xe.7X o o o o3+;Xs  o o o oSX`Oi.]O]O]O]O]O]O]O]O]O]O]O]O]O]OKo]o",
"E lX]O]O]O]O]O]O]O]O]O]O]O]O]O]O]OWX%X o o o o owOt. o o o oV.`X7O-O o o o o1o[XDX o o o o*o3X]O]O]O]O]O]O]O]O]O]O]O]O]O]O]O>.aX",
"B.No]O]O]O]O]O]O]O]O]O]O]O]O]O]O]OsOiODX o o o o o o o o o o@+`.v dX o o o o o o o o o o o1O;+]O]O]O]O]O]O]O]O]O]O]O]O]O]O]OlXPO",
"q .+]O]O]O]O]O]O]O]O]O]O]O]O]O]O]OCOC.). o o o o o o o o o oEO%o5.1XDX o o o o o o o o oNXD.BX]O]O]O]O]O]O]O]O]O]O]O]O]O]O]O .$ ",
"XO:O]O]O]O]O]O]O]O]O]O]O]O]O]O]O]OvX0.M  o o o o o o o o o*+#o;O<XZOV. o o o o o o o o oNO2+/X]O]O]O]O]O]O]O]O]O]O]O]O]O]O]OXX'.",
"Pod ]O]O]O]O]O]O]O]O]O]O]O]O]O]O]O]OxOK  o o o o o o o o o& R.i.vX`.%  o o o o o o o o oTXx.]O]O]O]O]O]O]O]O]O]O]O]O]O]O]O]OV bO",
"..8.q.]O]O]O]O]O]O]O]O]O]O]O]O]O]O]O0X0 *  o o o o o o o ojXlo]O]O@O2  o o o o o o o oDX +5.]O]O]O]O]O]O]O]O]O]O]O]O]O]O]ORo,+eo",
"r.b.Ko]O]O]O]O]O]O]O]O]O]O]O]O]O]O]Om.BOyo o o o o o o o o,oZX]O]OpOcO*  o o o o o o oV.ZO<X]O]O]O]O]O]O]O]O]O]O]O]O]O]O]OTOu ! ",
"doy.' ]O]O]O]O]O]O]O]O]O]O]O]O]O]O]Oo (.zo o o o o o o o7X-+|O]O]Om.n.1o o o o o o o oFOg.o ]O]O]O]O]O]O]O]O]O]O]O]O]O]O]OyXN L.",
"  Wod ]O]O]O]O]O]O]O]O]O]O]O]O]O]O]O]O.Xf  o o o o o o oto5O/X]O]Oo qOzo o o o o o o oEOUX]O]O]O]O]O]O]O]O]O]O]O]O]O]O]O]OM.6+  ",
"  g c.TO]O]O]O]O]O]O]O]O]O]O]O]O]O]O]Os.H.*+ o o o o o oQ QO]O]O]O]OG.,  o o o o o o*+7 ;O]O]O]O]O]O]O]O]O]O]O]O]O]O]O]OYoY.yO  ",
"  L.0o) ]O]O]O]O]O]O]O]O]O]O]O]O]O]O]O-o7+%+ o o o o os :+;O]O]O]O]O1.H *+ o o o o o% $O*O]O]O]O]O]O]O]O]O]O]O]O]O]O]O]O[ N w.  ",
"    :oVoq.]O]O]O]O]O]O]O]O]O]O]O]O]O]O]O~O X4X4X4X4X# O fXo ]O]O]O]O-oF vO4X4X4X4XU.qX<O]O]O]O]O]O]O]O]O]O]O]O]O]O]O]OToIotO    ",
"    Go>OX.]O]O]O]O]O]O]O]O]O]O]O]O]O]O]OBXhXxoxoxoxo~.rX/X]O]O]O]O]O]O{XxXxoxoxoxoWXDOo ]O]O]O]O]O]O]O]O]O]O]O]O]O]O]O%.{Or.    ",
"      tOW q.]O]O]O]O]O]O]O]O]O]O]O]O]O]O]O]O]O]O]O]O]O]O]O]O]O]O]O]O]O]O]O]O]O]O]O]O]O]O]O]O]O]O]O]O]O]O]O]O]O]O]O]OToP.p.      ",
"      Go9o' ]O]O]O]O]O]O]O]O]O]O]O]O]O]O]O]O]O]O]O]O]O]O]O]O]O]O]O]O]O]O]O]O]O]O]O]O]O]O]O]O]O]O]O]O]O]O]O]O]O]O]O]Obo:.r.      ",
"        4+|.TO]O]O]O]O]O]O]O]O]O]O]O]O]O]O]O]O]O]O]O]O]O]O]O]O]O]O]O]O]O]O]O]O]O]O]O]O]O]O]O]O]O]O]O]O]O]O]O]O]O]O9.}O<         ",
"        L.@oC ]O]O]O]O]O]O]O]O]O]O]O]O]O]O]O]O]O]O]O]O]O]O]O]O]O]O]O]O]O]O]O]O]O]O]O]O]O]O]O]O]O]O]O]O]O]O]O]O]O]OI ^Ogo        ",
"          ! ^ ' ]O]O]O]O]O]O]O]O]O]O]O]O]O]O]O]O]O]O]O]O]O]O]O]O]O]O]O]O]O]O]O]O]O]O]O]O]O]O]O]O]O]O]O]O]O]O]O]O ./o2.          ",
"            eo8O&.]O]O]O]O]O]O]O]O]O]O]O]O]O]O]O]O]O]O]O]O]O]O]O]O]O]O]O]O]O]O]O]O]O]O]O]O]O]O]O]O]O]O]O]O]O]O-.hOh             ",
"            =oJ./OIO]O]O]O]O]O]O]O]O]O]O]O]O]O]O]O]O]O]O]O]O]O]O]O]O]O]O]O]O]O]O]O]O]O]O]O]O]O]O]O]O]O]O]O]O4.@.#.do            ",
"              L.YOh.4.]O]O]O]O]O]O]O]O]O]O]O]O]O]O]O]O]O]O]O]O]O]O]O]O]O]O]O]O]O]O]O]O]O]O]O]O]O]O]O]O]O]O7.1 Eow.              ",
"                w.)OzXIO]O]O]O]O]O]O]O]O]O]O]O]O]O]O]O]O]O]O]O]O]O]O]O]O]O]O]O]O]O]O]O]O]O]O]O]O]O]O]O]O4.1 =Oj.                ",
"                  w.m 3 lX]O]O]O]O]O]O]O]O]O]O]O]O]O]O]O]O]O]O]O]O]O]O]O]O]O]O]O]O]O]O]O]O]O]O]O]O]O]O-.(oS no                  ",
"                    L.Wo8O' To]O]O]O]O]O]O]O]O]O]O]O]O]O]O]O]O]O]O]O]O]O]O]O]O]O]O]O]O]O]O]O]O]O]O]O .K.uX)o                    ",
"                      doJ |oC TO]O]O]O]O]O]O]O]O]O]O]O]O]O]O]O]O]O]O]O]O]O]O]O]O]O]O]O]O]O]O]O]O7.%O| 4+do                      ",
"                          ! AOHogOq.]O]O]O]O]O]O]O]O]O]O]O]O]O]O]O]O]O]O]O]O]O]O]O]O]O]O]O]Oq.eX'O}oc                           ",
"                            L.4+U <.iXq.]O]O]O]O]O]O]O]O]O]O]O]O]O]O]O]O]O]O]O]O]O]O]O]Oq.$.4 kXao+X                            ",
"                                Go5 MXzXco7.]O]O]O]O]O]O]O]O]O]O]O]O]O]O]O]O]O]O]O]O7.' ,.6.7o:X                                ",
"                                    *X&Xoo3.j ] UOTo]O]O]O]O]O]O]O]O]O]O]O]OToUO9X'ouOk.WO:X                                    ",
"                                        L.*.L f.KX_ &oso6XCocXCXIO-.%.gOJOz.wXEX6ObOLoL.                                        ",
"                                              doo.O+2X8XjO&+5XDo`oe U y.t Woy uo#+                                              "
};
